<mxfile host="app.diagrams.net" modified="2023-10-27T15:00:00.000Z" agent="Gemini" etag="unique-etag-56565" version="22.0.8" type="device">
  <diagram name="Use Case - Tổng quan Gantt" id="diagram-1">
    <mxGraphModel dx="1486" dy="799" grid="1" gridSize="10" guides="1" tooltips="1" connect="1" arrows="1" fold="1" page="1" pageScale="1" pageWidth="1169" pageHeight="827" math="0" shadow="0">
      <root>
        <mxCell id="0" />
        <mxCell id="1" parent="0" />
        <mxCell id="actor-user" value="Quản lý / Người dùng" style="shape=umlActor;verticalLabelPosition=bottom;verticalAlign=top;html=1;outlineConnect=0;" vertex="1" parent="1">
          <mxGeometry x="120" y="350" width="30" height="60" as="geometry" />
        </mxCell>
        <mxCell id="system-boundary" value="Hệ thống Tổng quan Gantt" style="swimlane;fontStyle=1;align=center;verticalAlign=top;childLayout=stackLayout;horizontal=1;startSize=26;horizontalStack=0;resizeParent=1;resizeParentMax=0;resizeLast=0;collapsible=0;marginBottom=0;rounded=1;strokeColor=#6c8ebf;fillColor=#dae8fc;" vertex="1" parent="1">
          <mxGeometry x="240" y="40" width="720" height="700" as="geometry">
            <mxRectangle x="240" y="40" width="140" height="26" as="alternateBounds" />
          </mxGeometry>
        </mxCell>
        <mxCell id="uc-view-portfolio" value="Xem tổng quan các dự án" style="ellipse;whiteSpace=wrap;html=1;fillColor=#ffffff;strokeColor=#000000;fontStyle=1;fontSize=14;" vertex="1" parent="system-boundary">
          <mxGeometry x="40" y="310" width="180" height="80" as="geometry" />
        </mxCell>
        <mxCell id="uc-filter-projects" value="Lọc dự án" style="ellipse;whiteSpace=wrap;html=1;fillColor=#ffffff;strokeColor=#000000;" vertex="1" parent="system-boundary">
          <mxGeometry x="280" y="150" width="160" height="70" as="geometry" />
        </mxCell>
        <mxCell id="uc-search-projects" value="Tìm kiếm dự án" style="ellipse;whiteSpace=wrap;html=1;fillColor=#ffffff;strokeColor=#000000;" vertex="1" parent="system-boundary">
          <mxGeometry x="280" y="240" width="160" height="70" as="geometry" />
        </mxCell>
        <mxCell id="uc-analyze-data" value="Phân tích dữ liệu" style="ellipse;whiteSpace=wrap;html=1;fillColor=#ffffff;strokeColor=#000000;" vertex="1" parent="system-boundary">
          <mxGeometry x="280" y="330" width="160" height="70" as="geometry" />
        </mxCell>
        <mxCell id="uc-view-details" value="Xem chi tiết dự án" style="ellipse;whiteSpace=wrap;html=1;fillColor=#ffffff;strokeColor=#000000;" vertex="1" parent="system-boundary">
          <mxGeometry x="280" y="420" width="160" height="70" as="geometry" />
        </mxCell>
        <mxCell id="uc-load-data" value="Tải dữ liệu tất cả dự án" style="ellipse;whiteSpace=wrap;html=1;fillColor=#d5e8d4;strokeColor=#82b366;" vertex="1" parent="system-boundary">
          <mxGeometry x="520" y="315" width="160" height="70" as="geometry" />
        </mxCell>
        <mxCell id="uc-view-as-pie" value="Xem dạng biểu đồ tròn" style="ellipse;whiteSpace=wrap;html=1;fillColor=#e1d5e7;strokeColor=#9673a6;" vertex="1" parent="system-boundary">
          <mxGeometry x="520" y="225" width="160" height="70" as="geometry" />
        </mxCell>
        <mxCell id="uc-view-as-bar" value="Xem dạng biểu đồ cột" style="ellipse;whiteSpace=wrap;html=1;fillColor=#e1d5e7;strokeColor=#9673a6;" vertex="1" parent="system-boundary">
          <mxGeometry x="520" y="405" width="160" height="70" as="geometry" />
        </mxCell>
        <mxCell id="uc-navigate-to-project" value="Điều hướng đến Gantt của dự án" style="ellipse;whiteSpace=wrap;html=1;fillColor=#d5e8d4;strokeColor=#82b366;" vertex="1" parent="system-boundary">
          <mxGeometry x="520" y="500" width="160" height="70" as="geometry" />
        </mxCell>
        <mxCell id="rel-actor-main" value="" style="endArrow=none;html=1;rounded=0;entryX=0;entryY=0.5;entryDx=0;entryDy=0;" edge="1" parent="1" source="actor-user" target="uc-view-portfolio">
          <mxGeometry width="50" height="50" relative="1" as="geometry">
            <mxPoint x="160" y="380" as="sourcePoint" />
            <mxPoint x="290" y="350" as="targetPoint" />
          </mxGeometry>
        </mxCell>
        <mxCell id="rel-general-filter" value="" style="endArrow=block;endFill=0;html=1;rounded=0;entryX=0;entryY=0.5;entryDx=0;entryDy=0;exitX=1;exitY=0.5;exitDx=0;exitDy=0;" edge="1" parent="1" source="uc-filter-projects" target="uc-view-portfolio">
          <mxGeometry width="50" height="50" relative="1" as="geometry">
            <mxPoint x="450" y="195" as="sourcePoint" />
            <mxPoint x="230" y="350" as="targetPoint" />
          </mxGeometry>
        </mxCell>
        <mxCell id="rel-general-search" value="" style="endArrow=block;endFill=0;html=1;rounded=0;entryX=0;entryY=0.5;entryDx=0;entryDy=0;exitX=1;exitY=0.5;exitDx=0;exitDy=0;" edge="1" parent="1" source="uc-search-projects" target="uc-view-portfolio">
          <mxGeometry width="50" height="50" relative="1" as="geometry">
            <mxPoint x="450" y="285" as="sourcePoint" />
            <mxPoint x="230" y="360" as="targetPoint" />
          </mxGeometry>
        </mxCell>
        <mxCell id="rel-general-analyze" value="" style="endArrow=block;endFill=0;html=1;rounded=0;entryX=0;entryY=0.5;entryDx=0;entryDy=0;exitX=1;exitY=0.5;exitDx=0;exitDy=0;" edge="1" parent="1" source="uc-analyze-data" target="uc-view-portfolio">
          <mxGeometry width="50" height="50" relative="1" as="geometry">
            <mxPoint x="450" y="375" as="sourcePoint" />
            <mxPoint x="230" y="370" as="targetPoint" />
          </mxGeometry>
        </mxCell>
        <mxCell id="rel-general-details" value="" style="endArrow=block;endFill=0;html=1;rounded=0;entryX=0;entryY=0.5;entryDx=0;entryDy=0;exitX=1;exitY=0.5;exitDx=0;exitDy=0;" edge="1" parent="1" source="uc-view-details" target="uc-view-portfolio">
          <mxGeometry width="50" height="50" relative="1" as="geometry">
            <mxPoint x="450" y="465" as="sourcePoint" />
            <mxPoint x="230" y="380" as="targetPoint" />
          </mxGeometry>
        </mxCell>
        <mxCell id="rel-include-load" value="include" style="endArrow=open;endSize=12;dashed=1;html=1;rounded=0;" edge="1" parent="1" source="uc-view-portfolio" target="uc-load-data">
          <mxGeometry width="100" height="100" relative="1" as="geometry">
            <mxPoint x="230" y="360" as="sourcePoint" />
            <mxPoint x="510" y="350" as="targetPoint" />
          </mxGeometry>
        </mxCell>
        <mxCell id="rel-extend-pie" value="extend" style="endArrow=open;endSize=12;dashed=1;html=1;rounded=0;" edge="1" parent="1" source="uc-view-as-pie" target="uc-analyze-data">
          <mxGeometry width="100" height="100" relative="1" as="geometry">
            <mxPoint x="510" y="260" as="sourcePoint" />
            <mxPoint x="450" y="365" as="targetPoint" />
          </mxGeometry>
        </mxCell>
        <mxCell id="rel-extend-bar" value="extend" style="endArrow=open;endSize=12;dashed=1;html=1;rounded=0;" edge="1" parent="1" source="uc-view-as-bar" target="uc-analyze-data">
          <mxGeometry width="100" height="100" relative="1" as="geometry">
            <mxPoint x="510" y="440" as="sourcePoint" />
            <mxPoint x="450" y="375" as="targetPoint" />
          </mxGeometry>
        </mxCell>
        <mxCell id="rel-include-navigate" value="include" style="endArrow=open;endSize=12;dashed=1;html=1;rounded=0;" edge="1" parent="1" source="uc-view-details" target="uc-navigate-to-project">
          <mxGeometry width="100" height="100" relative="1" as="geometry">
            <mxPoint x="450" y="465" as="sourcePoint" />
            <mxPoint x="510" y="535" as="targetPoint" />
          </mxGeometry>
        </mxCell>
      </root>
    </mxGraphModel>
  </diagram>
</mxfile>
